<svg width="439" height="315" viewBox="0 0 439 315" fill="none" xmlns="http://www.w3.org/2000/svg">

<path d="M422.2 282c-1.2 0-2.4-.3-3.5-.9l-11.7-6.8c-.7-.4-1.1-1.1-1.1-1.9 0-.8.4-1.5 1.1-1.9l11.7-6.8c2.1-1.2 4.8-1.2 7 0l11.7 6.8c.7.4 1.1 1.1 1.1 1.9 0 .8-.4 1.5-1.1 1.9l-11.7 6.8c-1.1.6-2.3.9-3.5.9zm0-17.3c-.9 0-1.8.2-2.6.7l-11.7 6.8c-.1.1-.2.2-.2.3 0 .1 0 .2.2.3l11.7 6.8c1.6.9 3.5.9 5.1 0l11.7-6.8c.1-.1.2-.2.2-.3 0-.1 0-.2-.2-.3l-11.7-6.8c-.8-.5-1.6-.7-2.5-.7zm-33.6-21.1c-2 0-3.9-.5-5.7-1.5l-20.2-11.7c-1-.6-1.5-1.5-1.5-2.7 0-1.1.6-2.1 1.5-2.7l20.2-11.7c3.5-2 7.8-2 11.3 0l20.2 11.7c1 .6 1.5 1.5 1.5 2.7 0 1.1-.6 2.1-1.5 2.7l-20.2 11.7c-1.7 1-3.6 1.5-5.6 1.5zm-4.7-3.2c2.9 1.7 6.5 1.7 9.5 0l20.2-11.7c.5-.3.6-.8.6-1 0-.2-.1-.7-.6-1L393.4 215c-2.9-1.7-6.5-1.7-9.5 0l-20.2 11.7c-.5.3-.6.8-.6 1 0 .2.1.7.6 1l20.2 11.7zM27.4 261.9c-2 0-3.9-.5-5.7-1.5L1.5 248.7c-1-.6-1.5-1.5-1.5-2.7 0-1.1.6-2.1 1.5-2.7l20.2-11.7c3.5-2 7.8-2 11.3 0l20.2 11.7c1 .6 1.5 1.5 1.5 2.7 0 1.1-.6 2.1-1.5 2.7L33 260.4c-1.7 1-3.7 1.5-5.6 1.5zm0-29.8c-1.6 0-3.3.4-4.7 1.3L2.5 245c-.5.3-.6.8-.6 1 0 .2.1.7.6 1l20.2 11.7c2.9 1.7 6.5 1.7 9.5 0L52.4 247c.5-.3.6-.8.6-1 0-.2-.1-.7-.6-1l-20.2-11.7c-1.5-.8-3.2-1.2-4.8-1.2z" fill="#fff"/>
<path d="M231.9 312.8L87.5 229.4c-2.1-1.2-1.8-3.3.6-4.7l92.7-53.5c2.4-1.4 6.1-1.6 8.2-.3l144.4 83.4c2.1 1.2 1.8 3.3-.6 4.7l-92.7 53.5c-2.4 1.3-6.1 1.5-8.2.3zm139.9-198.4L227.9 31.3c-1-.6-2-.7-2.9-.4l-2.7.9.9.2c-.4.4-.7 1-.9 1.6l-32.4 105.7c-.8 2.6.4 5.8 2.6 7.1l143.9 83.1c.3.2.7.3 1.1.4l-.4.8 2.5-.9c1-.4 1.9-1.3 2.3-2.7l32.5-105.6c.8-2.6-.3-5.8-2.6-7.1z" fill="#1E3DAF" stroke="#fff" stroke-width="1.5" stroke-miterlimit="10" stroke-linejoin="round"/>
<path d="M331.2 233.4l-142-82c-2.1-1.2-5.7-1.1-8.2.3l-91.8 53-3.1-1.2.9 4.3c.1.6.6 1.3 1.4 1.7l143.4 82.8c2.1 1.2 5.7 1.1 8.2-.3l92-53.1c1.1-.7 1.8-1.5 2-2.3l.9-4.2-3.7 1z" fill="#1E3DAF" stroke="#fff" stroke-width="1.5" stroke-miterlimit="10" stroke-linejoin="round"/>
<path d="M231.9 288.7L87.5 205.3c-2.1-1.2-1.8-3.3.6-4.7l92.7-53.5c2.4-1.4 6.1-1.6 8.2-.3l144.4 83.4c2.1 1.2 1.8 3.3-.6 4.7l-92.7 53.4c-2.4 1.4-6.1 1.6-8.2.4z" fill="#1E3DAF" stroke="#fff" stroke-width="1.5" stroke-miterlimit="10"/>
<path d="M332.8 233.7l-92.7 53.5c-2.4 1.4-6.1 1.6-8.2.3L87.5 204.2c-.7-.4-1.1-.9-1.3-1.5-.3 1 .1 1.9 1.3 2.6l144.4 83.4c2.1 1.2 5.8 1.1 8.2-.3l92.7-53.5c1.6-.9 2.2-2.2 1.9-3.2-.2.6-.8 1.4-1.9 2z" fill="#fff"/>
<path d="M157.1 191.2c-.2 0-.3 0-.3-.1l-4.5-2.6 5.4-3.1c.1-.1.3-.1.5-.1s.3 0 .3.1l4.5 2.6-5.4 3.1c-.2 0-.4.1-.5.1z" fill="#1E3DAF"/>
<path d="M158.2 186l3.3 1.9-4.3 2.5h-.1l-3.2-1.9 4.3-2.5s-.1 0 0 0zm0-1.5c-.3 0-.6.1-.9.2l-5.8 3.3c-.5.3-.5.7-.1.9l4.9 2.8c.2.1.4.2.7.2.3 0 .6-.1.9-.2l5.8-3.3c.5-.3.5-.7.1-.9l-4.9-2.8c-.2-.1-.4-.2-.7-.2z" fill="#fff"/>
<path d="M164.6 195.5c-.2 0-.3 0-.3-.1l-4.5-2.6 5.4-3.1c.1-.1.3-.1.5-.1s.3 0 .3.1l4.5 2.6-5.4 3.1c-.1.1-.3.1-.5.1z" fill="#1E3DAF"/>
<path d="M165.8 190.4l3.3 1.9-4.3 2.5h-.1l-3.2-1.9 4.3-2.5c-.1 0-.1 0 0 0zm0-1.5c-.3 0-.6.1-.9.2l-5.8 3.3c-.5.3-.5.7-.1.9l4.9 2.8c.2.1.4.2.7.2.3 0 .6-.1.9-.2l5.8-3.3c.5-.3.5-.7.1-.9l-4.9-2.8c-.2-.2-.5-.2-.7-.2z" fill="#fff"/>
<path d="M172.1 199.9c-.2 0-.3 0-.3-.1l-4.5-2.6 5.4-3.1c.1-.1.3-.1.5-.1s.3 0 .3.1l4.5 2.6-5.4 3.1c-.1 0-.3.1-.5.1z" fill="#1E3DAF"/>
<path d="M173.3 194.7l3.3 1.9-4.3 2.5h-.1l-3.2-1.9 4.3-2.5c-.1 0-.1 0 0 0zm0-1.5c-.3 0-.6.1-.9.2l-5.8 3.3c-.5.3-.5.7-.1.9l4.9 2.8c.2.1.4.2.7.2.3 0 .6-.1.9-.2l5.8-3.3c.5-.3.5-.7.1-.9l-4.9-2.8c-.2-.1-.4-.2-.7-.2z" fill="#fff"/>
<path d="M182.5 196.3c-.2 0-.3 0-.3-.1l-4.5-2.6 4.5-2.6c.1-.1.3-.1.5-.1s.3 0 .3.1l4.5 2.6-4.5 2.6c-.1 0-.3.1-.5.1z" fill="#1E3DAF"/>
<path d="M182.8 191.7l3.3 1.9-3.4 2h-.1l-3.2-1.9 3.4-2c-.1 0-.1 0 0 0zm0-1.5c-.3 0-.6.1-.9.2l-4.8 2.8c-.5.3-.5.7-.1.9l4.9 2.8c.2.1.4.2.7.2.3 0 .6-.1.9-.2l4.8-2.8c.5-.3.5-.7.1-.9l-4.9-2.8c-.2-.2-.5-.2-.7-.2z" fill="#fff"/>
<path d="M190.1 200.6c-.2 0-.3 0-.3-.1l-4.5-2.6 4.5-2.6c.1-.1.3-.1.5-.1s.3 0 .3.1l4.5 2.6-4.5 2.6c-.2.1-.4.1-.5.1z" fill="#1E3DAF"/>
<path d="M190.3 196l3.3 1.9-3.4 2h-.1l-3.2-1.9 3.4-2s-.1 0 0 0zm0-1.5c-.3 0-.6.1-.9.2l-4.8 2.8c-.5.3-.5.7-.1.9l4.9 2.8c.2.1.4.2.7.2.3 0 .6-.1.9-.2l4.8-2.8c.5-.3.5-.7.1-.9l-4.9-2.8c-.2-.1-.4-.2-.7-.2z" fill="#fff"/>
<path d="M197.6 205c-.2 0-.3 0-.3-.1l-4.5-2.6 4.5-2.6c.1-.1.3-.1.5-.1s.3 0 .3.1l4.5 2.6-4.5 2.6c-.1 0-.3.1-.5.1z" fill="#1E3DAF"/>
<path d="M197.9 200.4l3.3 1.9-3.4 2h-.1l-3.2-1.9 3.4-2c-.1 0-.1 0 0 0zm0-1.5c-.3 0-.6.1-.9.2l-4.8 2.8c-.5.3-.5.7-.1.9l4.9 2.8c.2.1.4.2.7.2.3 0 .6-.1.9-.2l4.8-2.8c.5-.3.5-.7.1-.9l-4.9-2.8c-.3-.2-.5-.2-.7-.2z" fill="#fff"/>
<path d="M205.1 209.3c-.2 0-.3 0-.3-.1l-4.5-2.6 4.5-2.6c.1-.1.3-.1.5-.1s.3 0 .3.1l4.5 2.6-4.5 2.6c-.1.1-.3.1-.5.1z" fill="#1E3DAF"/>
<path d="M205.4 204.7l3.3 1.9-3.4 2h-.1l-3.2-1.9 3.4-2c-.1 0-.1 0 0 0zm0-1.5c-.3 0-.6.1-.9.2l-4.8 2.8c-.5.3-.5.7-.1.9l4.9 2.8c.2.1.4.2.7.2.3 0 .6-.1.9-.2l4.8-2.8c.5-.3.5-.7.1-.9l-4.9-2.8c-.2-.2-.5-.2-.7-.2z" fill="#fff"/>
<path d="M212.7 213.7c-.2 0-.3 0-.3-.1l-4.5-2.6 4.5-2.6c.1-.1.3-.1.5-.1s.3 0 .3.1l4.5 2.6-4.5 2.6c-.2 0-.4.1-.5.1z" fill="#1E3DAF"/>
<path d="M212.9 209l3.3 1.9-3.4 2h-.1l-3.2-1.9 3.4-2s-.1.1 0 0zm0-1.5c-.3 0-.6.1-.9.2l-4.8 2.8c-.5.3-.5.7-.1.9l4.9 2.8c.2.1.4.2.7.2.3 0 .6-.1.9-.2l4.8-2.8c.5-.3.5-.7.1-.9l-4.9-2.8c-.2-.1-.4-.2-.7-.2z" fill="#fff"/>
<path d="M220.2 218c-.2 0-.3 0-.3-.1l-4.5-2.6 4.5-2.6c.1-.1.3-.1.5-.1s.3 0 .3.1l4.5 2.6-4.5 2.6c-.1.1-.3.1-.5.1z" fill="#1E3DAF"/>
<path d="M220.4 213.4l3.3 1.9-3.4 2h-.1l-3.2-1.9 3.4-2s-.1 0 0 0zm.1-1.5c-.3 0-.6.1-.9.2l-4.8 2.8c-.5.3-.5.7-.1.9l4.9 2.8c.2.1.4.2.7.2.3 0 .6-.1.9-.2l4.8-2.8c.5-.3.5-.7.1-.9l-4.9-2.8c-.3-.2-.5-.2-.7-.2z" fill="#fff"/>
<path d="M227.7 222.3c-.2 0-.3 0-.3-.1l-4.5-2.6 4.5-2.6c.1-.1.3-.1.5-.1s.3 0 .3.1l4.5 2.6-4.5 2.6c-.1.1-.3.1-.5.1z" fill="#1E3DAF"/>
<path d="M228 217.7l3.3 1.9-3.4 2h-.1l-3.2-1.9 3.4-2c-.1 0-.1.1 0 0zm0-1.5c-.3 0-.6.1-.9.2l-4.8 2.8c-.5.3-.5.7-.1.9l4.9 2.8c.2.1.4.2.7.2.3 0 .6-.1.9-.2l4.8-2.8c.5-.3.5-.7.1-.9l-4.9-2.8c-.2-.1-.5-.2-.7-.2z" fill="#fff"/>
<path d="M235.2 226.7c-.2 0-.3 0-.3-.1l-4.5-2.6 4.5-2.6c.1-.1.3-.1.5-.1s.3 0 .3.1l4.5 2.6-4.5 2.6c-.1.1-.3.1-.5.1z" fill="#1E3DAF"/>
<path d="M235.5 222.1l3.3 1.9-3.4 2h-.1l-3.2-1.9 3.4-2s-.1 0 0 0zm0-1.5c-.3 0-.6.1-.9.2l-4.8 2.8c-.5.3-.5.7-.1.9l4.9 2.8c.2.1.4.2.7.2.3 0 .6-.1.9-.2l4.8-2.8c.5-.3.5-.7.1-.9l-4.9-2.8c-.2-.2-.4-.2-.7-.2z" fill="#fff"/>
<path d="M242.8 231c-.2 0-.3 0-.3-.1l-4.5-2.6 4.5-2.6c.1-.1.3-.1.5-.1s.3 0 .3.1l4.5 2.6-4.5 2.6c-.2.1-.3.1-.5.1z" fill="#1E3DAF"/>
<path d="M243 226.4l3.3 1.9-3.4 2h-.1l-3.2-1.9 3.4-2s-.1.1 0 0zm0-1.5c-.3 0-.6.1-.9.2l-4.8 2.8c-.5.3-.5.7-.1.9l4.9 2.8c.2.1.4.2.7.2.3 0 .6-.1.9-.2l4.8-2.8c.5-.3.5-.7.1-.9l-4.9-2.8c-.2-.1-.4-.2-.7-.2z" fill="#fff"/>
<path d="M250.3 235.4c-.2 0-.3 0-.3-.1l-4.5-2.6 4.5-2.6c.1-.1.3-.1.5-.1s.3 0 .3.1l4.5 2.6-4.5 2.6c-.1 0-.3.1-.5.1z" fill="#1E3DAF"/>
<path d="M250.6 230.8l3.3 1.9-3.4 2h-.1l-3.2-1.9 3.4-2c-.1 0-.1 0 0 0zm0-1.5c-.3 0-.6.1-.9.2l-4.8 2.8c-.5.3-.5.7-.1.9l4.9 2.8c.2.1.4.2.7.2.3 0 .6-.1.9-.2l4.8-2.8c.5-.3.5-.7.1-.9l-4.9-2.8c-.2-.2-.5-.2-.7-.2z" fill="#fff"/>
<path d="M193.6 194.2c-.2 0-.3 0-.3-.1l-4.5-2.6 4.5-2.6c.1-.1.3-.1.5-.1s.3 0 .3.1l4.5 2.6-4.5 2.6c-.1.1-.3.1-.5.1z" fill="#1E3DAF"/>
<path d="M193.9 189.6l3.3 1.9-3.4 2h-.1l-3.2-1.9 3.4-2c-.1 0-.1 0 0 0zm0-1.5c-.3 0-.6.1-.9.2l-4.8 2.8c-.5.3-.5.7-.1.9l4.9 2.8c.2.1.4.2.7.2.3 0 .6-.1.9-.2l4.8-2.8c.5-.3.5-.7.1-.9l-4.9-2.8c-.2-.2-.5-.2-.7-.2z" fill="#fff"/>
<path d="M186 189.8c-.2 0-.3 0-.3-.1l-4.5-2.6 4.5-2.6c.1-.1.3-.1.5-.1s.3 0 .3.1l4.5 2.6-4.5 2.6c-.1 0-.3.1-.5.1z" fill="#1E3DAF"/>
<path d="M186.3 185.2l3.3 1.9-3.4 2h-.1l-3.2-1.9 3.4-2c-.1 0-.2 0 0 0zm0-1.5c-.3 0-.6.1-.9.2l-4.8 2.8c-.5.3-.5.7-.1.9l4.9 2.8c.2.1.4.2.7.2.3 0 .6-.1.9-.2l4.8-2.8c.5-.3.5-.7.1-.9l-4.9-2.8c-.3-.2-.5-.2-.7-.2z" fill="#fff"/>
<path d="M178.3 185.4c-.2 0-.3 0-.3-.1l-10.1-5.8 4.5-2.6c.1-.1.3-.1.5-.1s.3 0 .3.1l10.1 5.8-4.5 2.6c-.1 0-.3.1-.5.1z" fill="#1E3DAF"/>
<path d="M173 177.5l8.9 5.1-3.4 2h-.1l-8.9-5.1 3.4-2h.1zm0-1.5c-.3 0-.6.1-.9.2l-4.8 2.8c-.5.3-.5.7-.1.9l10.5 6.1c.2.1.4.2.7.2.3 0 .6-.1.9-.2l4.8-2.8c.5-.3.5-.7.1-.9l-10.5-6.1c-.2-.1-.5-.2-.7-.2z" fill="#fff"/>
<path d="M183.7 180c-.2 0-.3 0-.3-.1l-8.1-4.7 4.5-2.6c.1-.1.3-.1.5-.1s.3 0 .3.1l8.1 4.7-4.5 2.6c-.2.1-.3.1-.5.1z" fill="#1E3DAF"/>
<path d="M180.3 173.3l6.9 4-3.4 2h-.1l-6.9-4 3.4-2h.1zm0-1.5c-.3 0-.6.1-.9.2l-4.8 2.8c-.5.3-.5.7-.1.9l8.5 4.9c.2.1.4.2.7.2.3 0 .6-.1.9-.2l4.8-2.8c.5-.3.5-.7.1-.9L181 172c-.2-.2-.4-.2-.7-.2z" fill="#fff"/>
<path d="M201.2 198.6c-.2 0-.3 0-.3-.1l-4.5-2.6 4.5-2.6c.1-.1.3-.1.5-.1s.3 0 .3.1l4.5 2.6-4.5 2.6c-.2 0-.4.1-.5.1z" fill="#1E3DAF"/>
<path d="M201.4 193.9l3.3 1.9-3.4 2h-.1l-3.2-1.9 3.4-2s-.1.1 0 0zm0-1.5c-.3 0-.6.1-.9.2l-4.8 2.8c-.5.3-.5.7-.1.9l4.9 2.8c.2.1.4.2.7.2.3 0 .6-.1.9-.2l4.8-2.8c.5-.3.5-.7.1-.9l-4.9-2.8c-.2-.1-.4-.2-.7-.2z" fill="#fff"/>
<path d="M208.7 202.9c-.2 0-.3 0-.3-.1l-4.5-2.6 4.5-2.6c.1-.1.3-.1.5-.1s.3 0 .3.1l4.5 2.6-4.5 2.6c-.1.1-.3.1-.5.1z" fill="#1E3DAF"/>
<path d="M209 198.3l3.3 1.9-3.4 2h-.1l-3.2-1.9 3.4-2c-.1 0-.2 0 0 0zm0-1.5c-.3 0-.6.1-.9.2l-4.8 2.8c-.5.3-.5.7-.1.9l4.9 2.8c.2.1.4.2.7.2.3 0 .6-.1.9-.2l4.8-2.8c.5-.3.5-.7.1-.9l-4.9-2.8c-.3-.2-.5-.2-.7-.2z" fill="#fff"/>
<path d="M216.2 207.2c-.2 0-.3 0-.3-.1l-4.5-2.6 4.5-2.6c.1-.1.3-.1.5-.1s.3 0 .3.1l4.5 2.6-4.5 2.6c-.1.1-.3.1-.5.1z" fill="#1E3DAF"/>
<path d="M216.5 202.6l3.3 1.9-3.4 2h-.1l-3.2-1.9 3.4-2c-.1 0-.1.1 0 0zm0-1.5c-.3 0-.6.1-.9.2l-4.8 2.8c-.5.3-.5.7-.1.9l4.9 2.8c.2.1.4.2.7.2.3 0 .6-.1.9-.2l4.8-2.8c.5-.3.5-.7.1-.9l-4.9-2.8c-.2-.1-.5-.2-.7-.2z" fill="#fff"/>
<path d="M223.8 211.6c-.2 0-.3 0-.3-.1l-4.5-2.6 4.5-2.6c.1-.1.3-.1.5-.1s.3 0 .3.1l4.5 2.6-4.5 2.6c-.2 0-.4.1-.5.1z" fill="#1E3DAF"/>
<path d="M224 207l3.3 1.9-3.4 2h-.1l-3.2-1.9 3.4-2s-.1 0 0 0zm0-1.5c-.3 0-.6.1-.9.2l-4.8 2.8c-.5.3-.5.7-.1.9l4.9 2.8c.2.1.4.2.7.2.3 0 .6-.1.9-.2l4.8-2.8c.5-.3.5-.7.1-.9l-4.9-2.8c-.2-.2-.4-.2-.7-.2z" fill="#fff"/>
<path d="M231.3 215.9c-.2 0-.3 0-.3-.1l-4.5-2.6 4.5-2.6c.1-.1.3-.1.5-.1s.3 0 .3.1l4.5 2.6-4.5 2.6c-.2.1-.3.1-.5.1z" fill="#1E3DAF"/>
<path d="M231.5 211.3l3.3 1.9-3.4 2h-.1l-3.3-1.9 3.4-2h.1zm0-1.5c-.3 0-.6.1-.9.2l-4.8 2.8c-.5.3-.5.7-.1.9l4.9 2.8c.2.1.4.2.7.2.3 0 .6-.1.9-.2l4.8-2.8c.5-.3.5-.7.1-.9l-4.9-2.8c-.2-.1-.4-.2-.7-.2z" fill="#fff"/>
<path d="M238.8 220.3c-.2 0-.3 0-.3-.1l-4.5-2.6 4.5-2.6c.1-.1.3-.1.5-.1s.3 0 .3.1l4.5 2.6-4.5 2.6c-.1 0-.3.1-.5.1z" fill="#1E3DAF"/>
<path d="M239.1 215.7l3.3 1.9-3.4 2h-.1l-3.2-1.9 3.4-2c-.1 0-.1 0 0 0zm0-1.5c-.3 0-.6.1-.9.2l-4.8 2.8c-.5.3-.5.7-.1.9l4.9 2.8c.2.1.4.2.7.2.3 0 .6-.1.9-.2l4.8-2.8c.5-.3.5-.7.1-.9l-4.9-2.8c-.2-.2-.5-.2-.7-.2z" fill="#fff"/>
<path d="M246.3 224.6c-.2 0-.3 0-.3-.1l-4.5-2.6 4.5-2.6c.1-.1.3-.1.5-.1s.3 0 .3.1l4.5 2.6-4.5 2.6c-.1.1-.3.1-.5.1z" fill="#1E3DAF"/>
<path d="M246.6 220l3.3 1.9-3.4 2h-.1l-3.2-1.9 3.4-2c-.1 0-.1 0 0 0zm0-1.5c-.3 0-.6.1-.9.2l-4.8 2.8c-.5.3-.5.7-.1.9l4.9 2.8c.2.1.4.2.7.2.3 0 .6-.1.9-.2l4.8-2.8c.5-.3.5-.7.1-.9l-4.9-2.8c-.2-.1-.4-.2-.7-.2z" fill="#fff"/>
<path d="M253.9 229c-.2 0-.3 0-.3-.1l-4.5-2.6 4.5-2.6c.1-.1.3-.1.5-.1s.3 0 .3.1l4.5 2.6-4.5 2.6c-.2 0-.3.1-.5.1z" fill="#1E3DAF"/>
<path d="M254.1 224.4l3.3 1.9-3.4 2h-.1l-3.2-1.9 3.4-2c-.1 0 0 0 0 0zm0-1.5c-.3 0-.6.1-.9.2l-4.8 2.8c-.5.3-.5.7-.1.9l4.9 2.8c.2.1.4.2.7.2.3 0 .6-.1.9-.2l4.8-2.8c.5-.3.5-.7.1-.9l-4.9-2.8c-.2-.2-.4-.2-.7-.2z" fill="#fff"/>
<path d="M261.4 233.3c-.2 0-.3 0-.3-.1l-4.5-2.6 4.5-2.6c.1-.1.3-.1.5-.1s.3 0 .3.1l4.5 2.6-4.5 2.6c-.1.1-.3.1-.5.1z" fill="#1E3DAF"/>
<path d="M261.7 228.7l3.3 1.9-3.4 2h-.1l-3.2-1.9 3.4-2c-.1 0-.1 0 0 0zm0-1.5c-.3 0-.6.1-.9.2l-4.8 2.8c-.5.3-.5.7-.1.9l4.9 2.8c.2.1.4.2.7.2.3 0 .6-.1.9-.2l4.8-2.8c.5-.3.5-.7.1-.9l-4.9-2.8c-.2-.1-.5-.2-.7-.2z" fill="#fff"/>
<path d="M274.8 241.1c-.2 0-.3 0-.3-.1l-10.2-5.9 4.5-2.6c.1-.1.3-.1.5-.1s.3 0 .3.1l10.2 5.9-4.5 2.6c-.1 0-.3.1-.5.1z" fill="#1E3DAF"/>
<path d="M269.3 233.1l9 5.2-3.4 2h-.1l-9-5.2 3.4-2h.1zm0-1.5c-.3 0-.6.1-.9.2l-4.8 2.8c-.5.3-.5.7-.1.9l10.6 6.1c.2.1.4.2.7.2.3 0 .6-.1.9-.2l4.8-2.8c.5-.3.5-.7.1-.9l-10.6-6.1c-.2-.1-.5-.2-.7-.2z" fill="#fff"/>
<path d="M289.5 232.6c-.2 0-.3 0-.3-.1l-8.6-4.9 4.5-2.6c.1-.1.3-.1.5-.1s.3 0 .3.1l8.6 4.9-4.5 2.6c-.2.1-.4.1-.5.1z" fill="#1E3DAF"/>
<path d="M285.6 225.6l7.4 4.2-3.4 2h-.1l-7.4-4.2 3.4-2h.1zm0-1.5c-.3 0-.6.1-.9.2l-4.8 2.8c-.5.3-.5.7-.1.9l9 5.2c.2.1.4.2.7.2.3 0 .6-.1.9-.2l4.8-2.8c.5-.3.5-.7.1-.9l-9-5.2c-.2-.1-.4-.2-.7-.2z" fill="#fff"/>
<path d="M214.3 197.7c-.2 0-.3 0-.3-.1l-4.5-2.6 4.5-2.6c.1-.1.3-.1.5-.1s.3 0 .3.1l4.5 2.6-4.5 2.6c-.1.1-.3.1-.5.1z" fill="#1E3DAF"/>
<path d="M214.6 193.1l3.3 1.9-3.4 2h-.1l-3.2-1.9 3.4-2s-.1 0 0 0zm0-1.5c-.3 0-.6.1-.9.2l-4.8 2.8c-.5.3-.5.7-.1.9l4.9 2.8c.2.1.4.2.7.2.3 0 .6-.1.9-.2l4.8-2.8c.5-.3.5-.7.1-.9l-4.9-2.8c-.2-.2-.4-.2-.7-.2z" fill="#fff"/>
<path d="M206.6 193.2c-.2 0-.3 0-.3-.1l-4.5-2.6 4.5-2.6c.1-.1.3-.1.5-.1s.3 0 .3.1l4.5 2.6-4.5 2.6c-.1.1-.3.1-.5.1z" fill="#1E3DAF"/>
<path d="M206.9 188.6l3.3 1.9-3.4 2h-.1l-3.2-1.9 3.4-2c-.1 0-.1.1 0 0zm0-1.5c-.3 0-.6.1-.9.2l-4.8 2.8c-.5.3-.5.7-.1.9l4.9 2.8c.2.1.4.2.7.2.3 0 .6-.1.9-.2l4.8-2.8c.5-.3.5-.7.1-.9l-4.9-2.8c-.2-.1-.5-.2-.7-.2z" fill="#fff"/>
<path d="M198.9 188.8c-.2 0-.3 0-.3-.1l-4.5-2.6 4.5-2.6c.1-.1.3-.1.5-.1s.3 0 .3.1l4.5 2.6-4.5 2.6c-.1 0-.3.1-.5.1z" fill="#1E3DAF"/>
<path d="M199.2 184.2l3.3 1.9-3.4 2h-.1l-3.2-1.9 3.4-2c-.1 0-.1 0 0 0zm0-1.5c-.3 0-.6.1-.9.2l-4.8 2.8c-.5.3-.5.7-.1.9l4.9 2.8c.2.1.4.2.7.2.3 0 .6-.1.9-.2l4.8-2.8c.5-.3.5-.7.1-.9l-4.9-2.8c-.2-.2-.5-.2-.7-.2z" fill="#fff"/>
<path d="M191.2 184.3c-.2 0-.3 0-.3-.1l-4.5-2.6 4.5-2.6c.1-.1.3-.1.5-.1s.3 0 .3.1l4.5 2.6-4.5 2.6c-.1.1-.3.1-.5.1z" fill="#1E3DAF"/>
<path d="M191.5 179.7l3.3 1.9-3.4 2h-.1l-3.2-1.9 3.4-2c-.1 0-.1 0 0 0zm0-1.5c-.3 0-.6.1-.9.2l-4.8 2.8c-.5.3-.5.7-.1.9l4.9 2.8c.2.1.4.2.7.2.3 0 .6-.1.9-.2l4.8-2.8c.5-.3.5-.7.1-.9l-4.9-2.8c-.3-.1-.5-.2-.7-.2z" fill="#fff"/>
<path d="M221.9 202c-.2 0-.3 0-.3-.1l-4.5-2.6 4.5-2.6c.1-.1.3-.1.5-.1s.3 0 .3.1l4.5 2.6-4.5 2.6c-.2.1-.3.1-.5.1z" fill="#1E3DAF"/>
<path d="M222.1 197.4l3.3 1.9-3.4 2h-.1l-3.2-1.9 3.4-2s-.1.1 0 0zm0-1.5c-.3 0-.6.1-.9.2l-4.8 2.8c-.5.3-.5.7-.1.9l4.9 2.8c.2.1.4.2.7.2.3 0 .6-.1.9-.2l4.8-2.8c.5-.3.5-.7.1-.9l-4.9-2.8c-.2-.1-.4-.2-.7-.2z" fill="#fff"/>
<path d="M229.4 206.4c-.2 0-.3 0-.3-.1l-4.5-2.6 4.5-2.6c.1-.1.3-.1.5-.1s.3 0 .3.1l4.5 2.6-4.5 2.6c-.1.1-.3.1-.5.1z" fill="#1E3DAF"/>
<path d="M229.7 201.8l3.3 1.9-3.4 2h-.1l-3.2-1.9 3.4-2c-.1 0-.1 0 0 0zm0-1.5c-.3 0-.6.1-.9.2l-4.8 2.8c-.5.3-.5.7-.1.9l4.9 2.8c.2.1.4.2.7.2.3 0 .6-.1.9-.2l4.8-2.8c.5-.3.5-.7.1-.9l-4.9-2.8c-.2-.2-.5-.2-.7-.2z" fill="#fff"/>
<path d="M236.9 210.7c-.2 0-.3 0-.3-.1l-4.5-2.6 4.5-2.6c.1-.1.3-.1.5-.1s.3 0 .3.1l4.5 2.6-4.5 2.6c-.1.1-.3.1-.5.1z" fill="#1E3DAF"/>
<path d="M237.2 206.1l3.3 1.9-3.4 2h-.1l-3.2-1.9 3.4-2c-.1 0-.1.1 0 0zm0-1.5c-.3 0-.6.1-.9.2l-4.8 2.8c-.5.3-.5.7-.1.9l4.9 2.8c.2.1.4.2.7.2.3 0 .6-.1.9-.2l4.8-2.8c.5-.3.5-.7.1-.9l-4.9-2.8c-.2-.1-.4-.2-.7-.2z" fill="#fff"/>
<path d="M244.5 215.1c-.2 0-.3 0-.3-.1l-4.5-2.6 4.5-2.6c.1-.1.3-.1.5-.1s.3 0 .3.1l4.5 2.6-4.5 2.6c-.2 0-.4.1-.5.1z" fill="#1E3DAF"/>
<path d="M244.7 210.5l3.3 1.9-3.4 2h-.1l-3.2-1.9 3.4-2s-.1 0 0 0zm0-1.5c-.3 0-.6.1-.9.2L239 212c-.5.3-.5.7-.1.9l4.9 2.8c.2.1.4.2.7.2.3 0 .6-.1.9-.2l4.8-2.8c.5-.3.5-.7.1-.9l-4.9-2.8c-.2-.2-.4-.2-.7-.2z" fill="#fff"/>
<path d="M252 219.4c-.2 0-.3 0-.3-.1l-4.5-2.6 4.5-2.6c.1-.1.3-.1.5-.1s.3 0 .3.1l4.5 2.6-4.5 2.6c-.1.1-.3.1-.5.1z" fill="#1E3DAF"/>
<path d="M252.3 214.8l3.3 1.9-3.4 2h-.1l-3.2-1.9 3.4-2c-.1 0-.1 0 0 0zm0-1.5c-.3 0-.6.1-.9.2l-4.8 2.8c-.5.3-.5.7-.1.9l4.9 2.8c.2.1.4.2.7.2.3 0 .6-.1.9-.2l4.8-2.8c.5-.3.5-.7.1-.9l-4.9-2.8c-.2-.1-.5-.2-.7-.2z" fill="#fff"/>
<path d="M259.5 223.8c-.2 0-.3 0-.3-.1l-4.5-2.6 4.5-2.6c.1-.1.3-.1.5-.1s.3 0 .3.1l4.5 2.6-4.5 2.6c-.1 0-.3.1-.5.1z" fill="#1E3DAF"/>
<path d="M259.8 219.2l3.3 1.9-3.4 2h-.1l-3.2-1.9 3.4-2c-.1 0-.1 0 0 0zm0-1.5c-.3 0-.6.1-.9.2l-4.8 2.8c-.5.3-.5.7-.1.9l4.9 2.8c.2.1.4.2.7.2.3 0 .6-.1.9-.2l4.8-2.8c.5-.3.5-.7.1-.9l-4.9-2.8c-.2-.2-.5-.2-.7-.2z" fill="#fff"/>
<path d="M267.1 228.1c-.2 0-.3 0-.3-.1l-4.5-2.6 4.5-2.6c.1-.1.3-.1.5-.1s.3 0 .3.1l4.5 2.6-4.5 2.6c-.2.1-.4.1-.5.1z" fill="#1E3DAF"/>
<path d="M267.3 223.5l3.3 1.9-3.4 2h-.1l-3.2-1.9 3.4-2c-.1 0 0 0 0 0zm0-1.5c-.3 0-.6.1-.9.2l-4.8 2.8c-.5.3-.5.7-.1.9l4.9 2.8c.2.1.4.2.7.2.3 0 .6-.1.9-.2l4.8-2.8c.5-.3.5-.7.1-.9l-4.9-2.8c-.2-.1-.4-.2-.7-.2z" fill="#fff"/>
<path d="M274.6 232.5c-.2 0-.3 0-.3-.1l-4.5-2.6 4.5-2.6c.1-.1.3-.1.5-.1s.3 0 .3.1l4.5 2.6-4.5 2.6c-.1 0-.3.1-.5.1z" fill="#1E3DAF"/>
<path d="M274.9 227.9l3.3 1.9-3.4 2h-.1l-3.2-1.9 3.4-2c-.2 0-.1 0 0 0zm0-1.5c-.3 0-.6.1-.9.2l-4.8 2.8c-.5.3-.5.7-.1.9l4.9 2.8c.2.1.4.2.7.2.3 0 .6-.1.9-.2l4.8-2.8c.5-.3.5-.7.1-.9l-4.9-2.8c-.3-.2-.5-.2-.7-.2z" fill="#fff"/>
<path d="M282.1 236.8c-.2 0-.3 0-.3-.1l-4.5-2.6 4.5-2.6c.1-.1.3-.1.5-.1s.3 0 .3.1l4.5 2.6-4.5 2.6c-.1.1-.3.1-.5.1z" fill="#1E3DAF"/>
<path d="M282.4 232.2l3.3 1.9-3.4 2h-.1l-3.2-1.9 3.4-2c-.1 0-.1 0 0 0zm0-1.5c-.3 0-.6.1-.9.2l-4.8 2.8c-.5.3-.5.7-.1.9l4.9 2.8c.2.1.4.2.7.2.3 0 .6-.1.9-.2l4.8-2.8c.5-.3.5-.7.1-.9l-4.9-2.8c-.2-.1-.5-.2-.7-.2z" fill="#fff"/>
<path d="M210.4 186.9c-.2 0-.3 0-.3-.1l-4.5-2.6 4.5-2.6c.1-.1.3-.1.5-.1s.3 0 .3.1l4.5 2.6-4.5 2.6c-.2.1-.3.1-.5.1z" fill="#1E3DAF"/>
<path d="M210.6 182.3l3.3 1.9-3.4 2h-.1l-3.2-1.9 3.4-2s-.1.1 0 0zm0-1.5c-.3 0-.6.1-.9.2l-4.8 2.8c-.5.3-.5.7-.1.9l4.9 2.8c.2.1.4.2.7.2.3 0 .6-.1.9-.2l4.8-2.8c.5-.3.5-.7.1-.9l-4.9-2.8c-.2-.1-.4-.2-.7-.2z" fill="#fff"/>
<path d="M202.9 182.6c-.2 0-.3 0-.3-.1l-4.5-2.6 4.5-2.6c.1-.1.3-.1.5-.1s.3 0 .3.1l4.5 2.6-4.5 2.6c-.1.1-.3.1-.5.1z" fill="#1E3DAF"/>
<path d="M203.2 178l3.3 1.9-3.4 2h-.1l-3.2-1.9 3.4-2c-.1 0-.2 0 0 0zm0-1.5c-.3 0-.6.1-.9.2l-4.8 2.8c-.5.3-.5.7-.1.9l4.9 2.8c.2.1.4.2.7.2.3 0 .6-.1.9-.2l4.8-2.8c.5-.3.5-.7.1-.9l-4.9-2.8c-.3-.1-.5-.2-.7-.2z" fill="#fff"/>
<path d="M195.4 178.3c-.2 0-.3 0-.3-.1l-4.5-2.6 4.5-2.6c.1-.1.3-.1.5-.1s.3 0 .3.1l4.5 2.6-4.5 2.6c-.1.1-.3.1-.5.1z" fill="#1E3DAF"/>
<path d="M195.7 173.7l3.3 1.9-3.4 2h-.1l-3.2-1.9 3.4-2c-.1 0-.1 0 0 0zm0-1.5c-.3 0-.6.1-.9.2l-4.8 2.8c-.5.3-.5.7-.1.9l4.9 2.8c.2.1.4.2.7.2.3 0 .6-.1.9-.2l4.8-2.8c.5-.3.5-.7.1-.9l-4.9-2.8c-.3-.2-.5-.2-.7-.2z" fill="#fff"/>
<path d="M187.9 174c-.2 0-.3 0-.3-.1l-4.5-2.6 4.5-2.6c.1-.1.3-.1.5-.1s.3 0 .3.1l4.5 2.6-4.5 2.6c-.1 0-.3.1-.5.1z" fill="#1E3DAF"/>
<path d="M188.2 169.4l3.3 1.9-3.4 2h-.1l-3.2-1.9 3.4-2c-.1 0-.1 0 0 0zm0-1.5c-.3 0-.6.1-.9.2l-4.8 2.8c-.5.3-.5.7-.1.9l4.9 2.8c.2.1.4.2.7.2.3 0 .6-.1.9-.2l4.8-2.8c.5-.3.5-.7.1-.9l-4.9-2.8c-.2-.2-.5-.2-.7-.2z" fill="#fff"/>
<path d="M195.6 169.5c-.2 0-.3 0-.3-.1l-4.5-2.6 1.3-.7c.1-.1.3-.1.5-.1s.3 0 .3.1l4.5 2.6-1.3.7c-.1.1-.3.1-.5.1z" fill="#1E3DAF"/>
<path d="M192.6 166.8l3.3 1.9-.2.1h-.1l-3.2-1.9.2-.1s-.1 0 0 0zm0-1.5c-.3 0-.6.1-.9.2l-1.6.9c-.5.3-.5.7-.1.9l4.9 2.8c.2.1.4.2.7.2.3 0 .6-.1.9-.2l1.6-.9c.5-.3.5-.7.1-.9l-4.9-2.8c-.2-.2-.4-.2-.7-.2z" fill="#fff"/>
<path d="M205.4 175.2c-.2 0-.3 0-.3-.1l-4.5-2.6 1.3-.7c.1-.1.3-.1.5-.1s.3 0 .3.1l4.5 2.6-1.3.7c-.1 0-.3.1-.5.1z" fill="#1E3DAF"/>
<path d="M202.4 172.4l3.3 1.9-.2.1h-.1l-3.2-1.9.2-.1s-.1 0 0 0zm0-1.5c-.3 0-.6.1-.9.2l-1.6.9c-.5.3-.5.7-.1.9l4.9 2.8c.2.1.4.2.7.2.3 0 .6-.1.9-.2l1.6-.9c.5-.3.5-.7.1-.9l-4.9-2.8c-.2-.1-.4-.2-.7-.2z" fill="#fff"/>
<path d="M212.8 179.5c-.2 0-.3 0-.3-.1l-4.5-2.6 1.3-.7c.1-.1.3-.1.5-.1s.3 0 .3.1l4.5 2.6-1.3.7c-.1 0-.3.1-.5.1z" fill="#1E3DAF"/>
<path d="M209.9 176.7l3.3 1.9-.2.1h-.1l-3.2-1.9.2-.1c-.1 0-.1 0 0 0zm0-1.5c-.3 0-.6.1-.9.2l-1.6.9c-.5.3-.5.7-.1.9l4.9 2.8c.2.1.4.2.7.2.3 0 .6-.1.9-.2l1.6-.9c.5-.3.5-.7.1-.9l-4.9-2.8c-.2-.1-.5-.2-.7-.2z" fill="#fff"/>
<path d="M220.3 183.8c-.2 0-.3 0-.3-.1l-4.5-2.6 1.3-.7c.1-.1.3-.1.5-.1s.3 0 .3.1l4.5 2.6-1.3.7c-.1 0-.3.1-.5.1z" fill="#1E3DAF"/>
<path d="M217.3 181l3.3 1.9-.2.1h-.1l-3.2-1.9.2-.1s-.1.1 0 0zm0-1.5c-.3 0-.6.1-.9.2l-1.6.9c-.5.3-.5.7-.1.9l4.9 2.8c.2.1.4.2.7.2.3 0 .6-.1.9-.2l1.6-.9c.5-.3.5-.7.1-.9l-4.9-2.8c-.2-.1-.4-.2-.7-.2z" fill="#fff"/>
<path d="M227.8 188.1c-.2 0-.3 0-.3-.1l-4.5-2.6 1.3-.7c.1-.1.3-.1.5-.1s.3 0 .3.1l4.5 2.6-1.3.7c-.2 0-.3.1-.5.1z" fill="#1E3DAF"/>
<path d="M224.8 185.4l3.3 1.9-.2.1h-.1l-3.2-1.9.2-.1c-.1 0-.1 0 0 0zm0-1.5c-.3 0-.6.1-.9.2l-1.6.9c-.5.3-.5.7-.1.9l4.9 2.8c.2.1.4.2.7.2.3 0 .6-.1.9-.2l1.6-.9c.5-.3.5-.7.1-.9l-4.9-2.8c-.2-.2-.4-.2-.7-.2z" fill="#fff"/>
<path d="M269.4 212.1c-.2 0-.3 0-.3-.1l-4.5-2.6 1.3-.7c.1-.1.3-.1.5-.1s.3 0 .3.1l4.5 2.6-1.3.7c-.1.1-.3.1-.5.1z" fill="#1E3DAF"/>
<path d="M266.5 209.4l3.3 1.9-.2.1h-.1l-3.2-1.9.2-.1c-.2 0-.1 0 0 0zm0-1.5c-.3 0-.6.1-.9.2l-1.6.9c-.5.3-.5.7-.1.9l4.9 2.8c.2.1.4.2.7.2.3 0 .6-.1.9-.2l1.6-.9c.5-.3.5-.7.1-.9l-4.9-2.8c-.3-.1-.5-.2-.7-.2z" fill="#fff"/>
<path d="M276.9 216.4c-.2 0-.3 0-.3-.1l-4.5-2.6 1.3-.7c.1-.1.3-.1.5-.1s.3 0 .3.1l4.5 2.6-1.3.7c-.1.1-.3.1-.5.1z" fill="#1E3DAF"/>
<path d="M273.9 213.7l3.3 1.9-.2.1h-.1l-3.2-1.9.2-.1c-.1 0 0 0 0 0zm0-1.5c-.3 0-.6.1-.9.2l-1.6.9c-.5.3-.5.7-.1.9l4.9 2.8c.2.1.4.2.7.2.3 0 .6-.1.9-.2l1.6-.9c.5-.3.5-.7.1-.9l-4.9-2.8c-.2-.1-.4-.2-.7-.2z" fill="#fff"/>
<path d="M284.4 220.8c-.2 0-.3 0-.3-.1l-4.5-2.6 1.3-.7c.1-.1.3-.1.5-.1s.3 0 .3.1l4.5 2.6-1.3.7c-.2 0-.4.1-.5.1z" fill="#1E3DAF"/>
<path d="M281.4 218l3.3 1.9-.2.1h-.1l-3.2-1.9.2-.1c-.1 0-.1 0 0 0zm0-1.5c-.3 0-.6.1-.9.2l-1.6.9c-.5.3-.5.7-.1.9l4.9 2.8c.2.1.4.2.7.2.3 0 .6-.1.9-.2l1.6-.9c.5-.3.5-.7.1-.9l-4.9-2.8c-.2-.1-.5-.2-.7-.2z" fill="#fff"/>
<path d="M291.8 225.1c-.2 0-.3 0-.3-.1l-4.5-2.6 1.3-.7c.1-.1.3-.1.5-.1s.3 0 .3.1l4.5 2.6-1.3.7c-.1 0-.3.1-.5.1z" fill="#1E3DAF"/>
<path d="M288.8 222.3l3.3 1.9-.2.1h-.1l-3.2-1.9.2-.1c-.1 0 0 0 0 0zm0-1.5c-.3 0-.6.1-.9.2l-1.6.9c-.5.3-.5.7-.1.9l4.9 2.8c.2.1.4.2.7.2.3 0 .6-.1.9-.2l1.6-.9c.5-.3.5-.7.1-.9l-4.9-2.8c-.2-.1-.4-.2-.7-.2z" fill="#fff"/>
<path d="M217.9 191.3c-.2 0-.3 0-.3-.1l-4.5-2.6 4.5-2.6c.1-.1.3-.1.5-.1s.3 0 .3.1l4.5 2.6-4.5 2.6c-.1 0-.3.1-.5.1z" fill="#1E3DAF"/>
<path d="M218.2 186.7l3.3 1.9-3.4 2h-.1l-3.2-1.9 3.4-2c-.1 0-.1 0 0 0zm0-1.5c-.3 0-.6.1-.9.2l-4.8 2.8c-.5.3-.5.7-.1.9l4.9 2.8c.2.1.4.2.7.2.3 0 .6-.1.9-.2l4.8-2.8c.5-.3.5-.7.1-.9l-4.9-2.8c-.2-.2-.5-.2-.7-.2z" fill="#fff"/>
<path d="M225.4 195.6c-.2 0-.3 0-.3-.1l-4.5-2.6 4.5-2.6c.1-.1.3-.1.5-.1s.3 0 .3.1l4.5 2.6-4.5 2.6c-.1.1-.3.1-.5.1z" fill="#1E3DAF"/>
<path d="M225.7 191l3.3 1.9-3.4 2h-.1l-3.2-1.9 3.4-2c-.1 0-.1.1 0 0zm0-1.5c-.3 0-.6.1-.9.2l-4.8 2.8c-.5.3-.5.7-.1.9l4.9 2.8c.2.1.4.2.7.2.3 0 .6-.1.9-.2l4.8-2.8c.5-.3.5-.7.1-.9l-4.9-2.8c-.2-.1-.4-.2-.7-.2z" fill="#fff"/>
<path d="M233 200c-.2 0-.3 0-.3-.1l-4.5-2.6 4.5-2.6c.1-.1.3-.1.5-.1s.3 0 .3.1l4.5 2.6-4.5 2.6c-.2 0-.3.1-.5.1z" fill="#1E3DAF"/>
<path d="M233.2 195.4l3.3 1.9-3.4 2h-.1l-3.2-1.9 3.4-2s-.1 0 0 0zm0-1.5c-.3 0-.6.1-.9.2l-4.8 2.8c-.5.3-.5.7-.1.9l4.9 2.8c.2.1.4.2.7.2.3 0 .6-.1.9-.2l4.8-2.8c.5-.3.5-.7.1-.9l-4.9-2.8c-.2-.2-.4-.2-.7-.2z" fill="#fff"/>
<path d="M240.5 204.3c-.2 0-.3 0-.3-.1l-4.5-2.6 4.5-2.6c.1-.1.3-.1.5-.1s.3 0 .3.1l4.5 2.6-4.5 2.6c-.1.1-.3.1-.5.1z" fill="#1E3DAF"/>
<path d="M240.8 199.7l3.3 1.9-3.4 2h-.1l-3.2-1.9 3.4-2c-.1 0-.1 0 0 0zm0-1.5c-.3 0-.6.1-.9.2l-4.8 2.8c-.5.3-.5.7-.1.9l4.9 2.8c.2.1.4.2.7.2.3 0 .6-.1.9-.2l4.8-2.8c.5-.3.5-.7.1-.9l-4.9-2.8c-.2-.1-.5-.2-.7-.2z" fill="#fff"/>
<path d="M248 208.7c-.2 0-.3 0-.3-.1l-4.5-2.6 4.5-2.6c.1-.1.3-.1.5-.1s.3 0 .3.1l4.5 2.6-4.5 2.6c-.1 0-.3.1-.5.1z" fill="#1E3DAF"/>
<path d="M248.3 204.1l3.3 1.9-3.4 2h-.1l-3.2-1.9 3.4-2c-.1 0-.1 0 0 0zm0-1.5c-.3 0-.6.1-.9.2l-4.8 2.8c-.5.3-.5.7-.1.9l4.9 2.8c.2.1.4.2.7.2.3 0 .6-.1.9-.2l4.8-2.8c.5-.3.5-.7.1-.9l-4.9-2.8c-.2-.2-.5-.2-.7-.2z" fill="#fff"/>
<path d="M255.6 213c-.2 0-.3 0-.3-.1l-4.5-2.6 4.5-2.6c.1-.1.3-.1.5-.1s.3 0 .3.1l4.5 2.6-4.5 2.6c-.2.1-.4.1-.5.1z" fill="#1E3DAF"/>
<path d="M255.8 208.4l3.3 1.9-3.4 2h-.1l-3.2-1.9 3.4-2s-.1 0 0 0zm0-1.5c-.3 0-.6.1-.9.2l-4.8 2.8c-.5.3-.5.7-.1.9l4.9 2.8c.2.1.4.2.7.2.3 0 .6-.1.9-.2l4.8-2.8c.5-.3.5-.7.1-.9l-4.9-2.8c-.2-.1-.4-.2-.7-.2z" fill="#fff"/>
<path d="M263.1 217.4c-.2 0-.3 0-.3-.1l-4.5-2.6 4.5-2.6c.1-.1.3-.1.5-.1s.3 0 .3.1l4.5 2.6-4.5 2.6c-.1 0-.3.1-.5.1z" fill="#1E3DAF"/>
<path d="M263.4 212.8l3.3 1.9-3.4 2h-.1l-3.2-1.9 3.4-2c-.2 0-.1 0 0 0zm0-1.5c-.3 0-.6.1-.9.2l-4.8 2.8c-.5.3-.5.7-.1.9l4.9 2.8c.2.1.4.2.7.2.3 0 .6-.1.9-.2l4.8-2.8c.5-.3.5-.7.1-.9l-4.9-2.8c-.3-.2-.5-.2-.7-.2z" fill="#fff"/>
<path d="M270.6 221.7c-.2 0-.3 0-.3-.1l-4.5-2.6 4.5-2.6c.1-.1.3-.1.5-.1s.3 0 .3.1l4.5 2.6-4.5 2.6c-.1.1-.3.1-.5.1z" fill="#1E3DAF"/>
<path d="M270.9 217.1l3.3 1.9-3.4 2h-.1l-3.2-1.9 3.4-2c-.1 0-.1 0 0 0zm0-1.5c-.3 0-.6.1-.9.2l-4.8 2.8c-.5.3-.5.7-.1.9l4.9 2.8c.2.1.4.2.7.2.3 0 .6-.1.9-.2l4.8-2.8c.5-.3.5-.7.1-.9l-4.9-2.8c-.2-.1-.5-.2-.7-.2z" fill="#fff"/>
<path d="M278.2 226.1c-.2 0-.3 0-.3-.1l-4.5-2.6 4.5-2.6c.1-.1.3-.1.5-.1s.3 0 .3.1l4.5 2.6-4.5 2.6c-.2 0-.4.1-.5.1z" fill="#1E3DAF"/>
<path d="M278.4 221.5l3.3 1.9-3.4 2h-.1l-3.2-1.9 3.4-2c-.1 0 0 0 0 0zm0-1.5c-.3 0-.6.1-.9.2l-4.8 2.8c-.5.3-.5.7-.1.9l4.9 2.8c.2.1.4.2.7.2.3 0 .6-.1.9-.2l4.8-2.8c.5-.3.5-.7.1-.9l-4.9-2.8c-.2-.2-.4-.2-.7-.2z" fill="#fff"/>
<path d="M174.9 191.8c-.2 0-.3 0-.3-.1l-13.9-8 4.5-2.6c.1-.1.3-.1.5-.1s.3 0 .3.1l13.9 8-4.5 2.6c-.2.1-.4.1-.5.1z" fill="#1E3DAF"/>
<path d="M165.6 181.7l12.7 7.4-3.4 2h-.1l-12.7-7.4 3.4-2c0 .1.1.1.1 0zm0-1.5c-.3 0-.6.1-.9.2l-4.8 2.8c-.5.3-.5.7-.1.9l14.4 8.3c.2.1.4.2.7.2.3 0 .6-.1.9-.2l4.8-2.8c.5-.3.5-.7.1-.9l-14.4-8.3c-.2-.1-.4-.2-.7-.2z" fill="#fff"/>
<path d="M267.4 245.2c-.2 0-.3 0-.3-.1l-13.9-8 4.5-2.6c.1-.1.3-.1.5-.1s.3 0 .3.1l13.9 8-4.5 2.6c-.2.1-.3.1-.5.1z" fill="#1E3DAF"/>
<path d="M258.2 235.2l12.7 7.4-3.4 2h-.1l-12.7-7.4 3.4-2h.1zm0-1.5c-.3 0-.6.1-.9.2l-4.8 2.8c-.5.3-.5.7-.1.9l14.4 8.3c.2.1.4.2.7.2.3 0 .6-.1.9-.2l4.8-2.8c.5-.3.5-.7.1-.9l-14.4-8.3c-.3-.2-.5-.2-.7-.2z" fill="#fff"/>
<path d="M237.3 237.5c-.2 0-.3 0-.3-.1l-4.5-2.6 5.4-3.1c.1-.1.3-.1.5-.1s.3 0 .3.1l4.5 2.6-5.4 3.1c-.2 0-.4.1-.5.1z" fill="#1E3DAF"/>
<path d="M238.4 232.3l3.3 1.9-4.3 2.5h-.1l-3.2-1.9 4.3-2.5s-.1 0 0 0zm0-1.5c-.3 0-.6.1-.9.2l-5.8 3.3c-.5.3-.5.7-.1.9l4.9 2.8c.2.1.4.2.7.2.3 0 .6-.1.9-.2l5.8-3.3c.5-.3.5-.7.1-.9l-4.9-2.8c-.2-.1-.4-.2-.7-.2z" fill="#fff"/>
<path d="M182.6 205.9c-.2 0-.3 0-.3-.1l-7.4-4.3 5.4-3.1c.1-.1.3-.1.5-.1s.3 0 .3.1l7.4 4.3-5.4 3.1c-.2 0-.3.1-.5.1z" fill="#1E3DAF"/>
<path d="M180.8 199.1l6.2 3.6-4.3 2.5h-.1l-6.2-3.6 4.3-2.5h.1zm0-1.5c-.3 0-.6.1-.9.2l-5.8 3.3c-.5.3-.5.7-.1.9l7.8 4.5c.2.1.4.2.7.2.3 0 .6-.1.9-.2l5.8-3.3c.5-.3.5-.7.1-.9l-7.8-4.5c-.2-.2-.4-.2-.7-.2z" fill="#fff"/>
<path d="M230 233.3c-.2 0-.3 0-.3-.1l-7.4-4.3 5.4-3.1c.1-.1.3-.1.5-.1s.3 0 .3.1l7.4 4.3-5.4 3.1c-.1 0-.3.1-.5.1z" fill="#1E3DAF"/>
<path d="M228.3 226.4l6.2 3.6-4.3 2.5h-.1l-6.2-3.6 4.3-2.5c0 .1 0 0 .1 0zm0-1.5c-.3 0-.6.1-.9.2l-5.8 3.3c-.5.3-.5.7-.1.9l7.8 4.5c.2.1.4.2.7.2.3 0 .6-.1.9-.2l5.8-3.3c.5-.3.5-.7.1-.9l-7.8-4.5c-.2-.1-.5-.2-.7-.2z" fill="#fff"/>
<path d="M193.4 212.2c-.2 0-.3 0-.3-.1l-7.4-4.3 5.4-3.1c.1-.1.3-.1.5-.1s.3 0 .3.1l7.4 4.3-5.4 3.1c-.1 0-.3.1-.5.1z" fill="#1E3DAF"/>
<path d="M191.7 205.3l6.2 3.6-4.3 2.5h-.1l-6.2-3.6 4.3-2.5h.1zm0-1.5c-.3 0-.6.1-.9.2l-5.8 3.3c-.5.3-.5.7-.1.9l7.8 4.5c.2.1.4.2.7.2.3 0 .6-.1.9-.2l5.8-3.3c.5-.3.5-.7.1-.9l-7.8-4.5c-.2-.1-.4-.2-.7-.2z" fill="#fff"/>
<path d="M219.7 227.3c-.2 0-.3 0-.4-.1l-32.8-18.9 5.9-3.4 33.2 19.1-5.5 3.2c-.1 0-.2.1-.4.1z" fill="#1E3DAF"/>
<path d="M192.4 205.7l31.7 18.3-4.3 2.5h-.2L188 208.3l4.4-2.6zm0-1.7l-7.4 4.3 33.9 19.6c.2.1.5.2.8.2.3 0 .6-.1.8-.2l5.9-3.4c.4-.2.4-.6 0-.9l-34-19.6z" fill="#fff"/>
<path d="M259.9 250.6h-.2l-4.9-2.8 1.9-1.1c.1 0 .2-.1.3-.1h.2l4.9 2.8-1.9 1.1c0 .1-.2.1-.3.1z" fill="#1E3DAF"/>
<path d="M257.1 247.3l3.6 2.1-.7.4-3.6-2.1.7-.4zm0-1.5c-.2 0-.5.1-.7.2l-2.4 1.4c-.4.2-.4.5-.1.7l5.4 3.1c.1.1.3.1.5.1s.5-.1.7-.2l2.4-1.4c.4-.2.4-.5.1-.7l-5.4-3.1c-.1 0-.3-.1-.5-.1z" fill="#fff"/>
<path d="M252.3 246.2h-.2l-4.9-2.8 1.9-1.1c.1 0 .2-.1.3-.1h.2l4.9 2.8-1.9 1.1c0 .1-.2.1-.3.1z" fill="#1E3DAF"/>
<path d="M249.5 243l3.6 2.1-.7.4-3.6-2.1.7-.4zm0-1.6c-.2 0-.5.1-.7.2l-2.4 1.4c-.4.2-.4.5-.1.7l5.4 3.1c.1.1.3.1.5.1s.5-.1.7-.2l2.4-1.4c.4-.2.4-.5.1-.7l-5.4-3.1c-.1 0-.3-.1-.5-.1z" fill="#fff"/>
<path d="M244.8 241.9h-.2l-4.9-2.8 1.9-1.1c.1 0 .2-.1.3-.1h.2l4.9 2.8-1.9 1.1c-.1 0-.2.1-.3.1z" fill="#1E3DAF"/>
<path d="M241.9 238.6l3.6 2.1-.7.4-3.6-2.1.7-.4zm.1-1.5c-.2 0-.5.1-.7.2l-2.4 1.4c-.4.2-.4.5-.1.7l5.4 3.1c.1.1.3.1.5.1s.5-.1.7-.2l2.4-1.4c.4-.2.4-.5.1-.7l-5.4-3.1c-.1-.1-.3-.1-.5-.1z" fill="#fff"/>
<path d="M256.5 243.8h-.2l-4.9-2.8 1.9-1.1c.1 0 .2-.1.3-.1h.2l4.9 2.8-1.9 1.1c-.1.1-.2.1-.3.1z" fill="#1E3DAF"/>
<path d="M253.6 240.6l3.6 2.1-.7.4-3.6-2.1.7-.4zm.1-1.6c-.2 0-.5.1-.7.2l-2.4 1.4c-.4.2-.4.5-.1.7l5.4 3.1c.1.1.3.1.5.1s.5-.1.7-.2l2.4-1.4c.4-.2.4-.5.1-.7l-5.4-3.1c-.1 0-.3-.1-.5-.1z" fill="#fff"/>
<path d="M333.9 230.4L190 147.3c-2.3-1.3-3.4-4.5-2.6-7.1l32.5-105.6c.8-2.6 3.3-3.7 5.6-2.4l143.9 83.1c2.3 1.3 3.4 4.5 2.6 7.1L339.5 228c-.8 2.6-3.3 3.7-5.6 2.4z" fill="#1E3DAF" stroke="#fff" stroke-width="1.5" stroke-miterlimit="10"/>
<path d="M196.9 136.5l27.4-89.1c.9-2.9 4.3-4.2 6.9-2.7l128.5 74.2c2.5 1.4 3.6 4.4 2.8 7.1l-27.4 89.1c-.9 2.9-4.3 4.2-6.9 2.7l-128.5-74.2c-2.5-1.4-3.6-4.3-2.8-7.1z" fill="#1E3DAF" stroke="#fff" stroke-width="1.5" stroke-miterlimit="10"/>
<path d="M325 195.8l-94.4-54.5c-1.5-.9-2.3-2.9-1.7-4.7l21.4-69.4c.5-1.7 2.2-2.4 3.6-1.6l94.5 54.5c1.5.9 2.3 2.9 1.7 4.7l-21.4 69.4c-.5 1.8-2.2 2.5-3.7 1.6z" fill="#1E3DAF" stroke="#fff" stroke-width="1.5" stroke-miterlimit="10" stroke-linejoin="round"/>
<path d="M312.3 197.5L217.8 143c-1.5-.9-2.3-2.9-1.7-4.7l21.4-69.4c.5-1.7 2.2-2.4 3.6-1.6l94.5 54.5c1.5.9 2.3 2.9 1.7 4.7l-21.4 69.4c-.5 1.7-2.1 2.4-3.6 1.6z" fill="url(#paint0_radial)"/>
<path d="M312.3 197.5L217.8 143c-1.5-.9-2.3-2.9-1.7-4.7l21.4-69.4c.5-1.7 2.2-2.4 3.6-1.6l94.5 54.5c1.5.9 2.3 2.9 1.7 4.7l-21.4 69.4c-.5 1.7-2.1 2.4-3.6 1.6z" fill="#1E3DAF" stroke="#fff" stroke-width="1.5" stroke-miterlimit="10" stroke-linejoin="round"/>
<path d="M335.6 121.9l-94.5-54.5c-.9-.5-1.9-.5-2.7.1.4 0 .9.1 1.4.3l94.5 54.5c1.5.9 2.3 2.9 1.7 4.7l-21.4 69.4c-.2.6-.5 1.1-1 1.5 1 0 1.9-.7 2.3-1.9l21.4-69.4c.5-1.8-.3-3.9-1.7-4.7zM193.1 254.1c-1.3 0-2.5-.3-3.5-.8l-37.8-21.8c-1-.6-1.6-1.4-1.6-2.3 0-1.1.8-2.1 2.1-2.9l19.5-11.2c2.4-1.4 5.9-1.5 8-.3l37.8 21.8c1 .6 1.6 1.4 1.6 2.3 0 1.1-.8 2.1-2.1 2.9L197.6 253c-1.3.7-2.9 1.1-4.5 1.1zm-16.8-39.2c-1.4 0-2.8.3-3.9 1l-19.5 11.2c-1 .6-1.5 1.3-1.5 1.9 0 .7.5 1.1 1 1.4l37.8 21.9c1.7 1 4.9.9 6.9-.3l19.5-11.2c1-.6 1.5-1.3 1.5-1.9 0-.7-.5-1.1-1-1.4l-37.8-21.8c-.8-.5-1.9-.8-3-.8z" fill="#fff"/>
<path d="M264.1 103.7l-5.8-3.4c-.5-.3-.8-1.1-.6-1.7.2-.6.8-.9 1.3-.5l5.8 3.4c.5.3.8 1.1.6 1.7-.2.6-.7.9-1.3.5zm13.9 8.1l-8.6-5c-.5-.3-.8-1.1-.6-1.7.2-.6.8-.9 1.3-.5l8.6 5c.5.3.8 1.1.6 1.7-.1.5-.7.8-1.3.5zm-25.7 17.9l-5.8-3.4c-.5-.3-.8-1.1-.6-1.7.2-.6.8-.9 1.3-.5l5.8 3.4c.5.3.8 1.1.6 1.7-.1.6-.7.9-1.3.5zm12.4 7.2l-8.6-5c-.5-.3-.8-1.1-.6-1.7.2-.6.8-.9 1.3-.5l8.6 5c.5.3.8 1.1.6 1.7-.1.6-.7.8-1.3.5zm-18.1-37.8L243 97c-.5-.3-.8-1.1-.6-1.7.2-.6.8-.9 1.3-.5l3.6 2.1c.5.3.8 1.1.6 1.7-.2.6-.7.8-1.3.5zm11 11.8l-11.1-6.4c-.5-.3-.8-1.1-.6-1.7.2-.6.8-.9 1.3-.5l11.1 6.4c.5.3.8 1.1.6 1.7-.2.6-.8.8-1.3.5zm-10.3 5l-3.6-2.1c-.5-.3-.8-1.1-.6-1.7.2-.6.8-.9 1.3-.5l3.6 2.1c.5.3.8 1.1.6 1.7-.2.6-.7.8-1.3.5zm18.8 32.7l-9.7-5.6c-.5-.3-.8-1.1-.6-1.7.2-.6.8-.9 1.3-.5l9.7 5.6c.5.3.8 1.1.6 1.7-.2.6-.8.8-1.3.5zm-22.9-24.1l-2.3-1.4c-.5-.3-.8-1.1-.6-1.7.2-.6.8-.9 1.3-.5l2.3 1.4c.5.3.8 1.1.6 1.7-.1.5-.7.8-1.3.5zm-2.2 9.6l-2.9-1.7c-.5-.3-.8-1.1-.6-1.7.2-.6.8-.9 1.3-.5l2.9 1.7c.5.3.8 1.1.6 1.7-.2.6-.7.8-1.3.5zm11.3 6.6l-7.7-4.4c-.5-.3-.8-1.1-.6-1.7.2-.6.8-.9 1.3-.5l7.7 4.4c.5.3.8 1.1.6 1.7-.1.5-.7.8-1.3.5zm-10.1-.4l-5.5-3.2c-.5-.3-.8-1.1-.6-1.7.2-.6.8-.9 1.3-.5l5.5 3.2c.5.3.8 1.1.6 1.7-.1.6-.7.8-1.3.5zm32.2 13.2l-3.5-2c-.5-.3-.8-1.1-.6-1.7.2-.6.8-.9 1.3-.5l3.5 2c.5.3.8 1.1.6 1.7-.1.5-.7.8-1.3.5zm-13.5-29.8l-9.7-5.6c-.5-.3-.8-1.1-.6-1.7.2-.6.8-.9 1.3-.5l9.7 5.6c.5.3.8 1.1.6 1.7-.2.6-.8.9-1.3.5zm1.1-4.8l-17-9.8c-.5-.3-.8-1.1-.6-1.7.2-.6.8-.9 1.3-.5l17 9.8c.5.3.8 1.1.6 1.7-.1.6-.7.9-1.3.5zm-10 5.2l-9.7-5.6c-.5-.3-.8-1.1-.6-1.7.2-.6.8-.9 1.3-.5l9.7 5.6c.5.3.8 1.1.6 1.7-.2.6-.7.8-1.3.5zm16.3 3.9l-3.5-2c-.5-.3-.8-1.1-.6-1.7.2-.6.8-.9 1.3-.5l3.5 2c.5.3.8 1.1.6 1.7-.2.6-.8.8-1.3.5zm36-1.1l-21-12.1c-.5-.3-.8-1.1-.6-1.7.2-.6.8-.9 1.3-.5l21 12.1c.5.3.8 1.1.6 1.7-.2.6-.8.8-1.3.5zm-53.1 7.7l-11.7-6.8c-.5-.3-.8-1.1-.6-1.7.2-.6.8-.9 1.3-.5l11.7 6.8c.5.3.8 1.1.6 1.7-.2.5-.8.8-1.3.5zm1.8-37.3l-8.6-5c-.5-.3-.8-1.1-.6-1.7.2-.6.8-.9 1.3-.5l8.6 5c.5.3.8 1.1.6 1.7-.2.6-.8.8-1.3.5zm-12.6 47.4l-10-5.8c-.5-.3-.8-1.1-.6-1.7.2-.6.8-.9 1.3-.5l10 5.8c.5.3.8 1.1.6 1.7-.1.6-.7.8-1.3.5zm66.2-28.5l-4.3-2.5c-.4-.2-.6-.8-.5-1.2.1-.4.6-.6 1-.4l4.3 2.5c.4.2.6.8.5 1.2-.1.4-.6.6-1 .4zm8.2 4.7l-4.3-2.5c-.4-.2-.6-.8-.5-1.2.1-.4.6-.6 1-.4l4.3 2.5c.4.2.6.8.5 1.2-.2.4-.6.6-1 .4zm8.1 4.7l-4.3-2.5c-.4-.2-.6-.8-.5-1.2.1-.4.6-.6 1-.4l4.3 2.5c.4.2.6.8.5 1.2-.2.4-.6.6-1 .4zm4 2.3l-.1-.1c-.4-.2-.6-.8-.5-1.2.1-.4.6-.6 1-.4l.1.1c.4.2.6.8.5 1.2-.1.4-.6.6-1 .4zm-220.3 49.9c-2.7 0-5.4-.7-7.8-2.1l-28.6-16.5c-1.2-.7-2-2-2-3.4s.7-2.7 2-3.4l28.6-16.5c4.8-2.8 10.8-2.8 15.6 0l28.6 16.5c1.2.7 2 2 2 3.4s-.7 2.7-2 3.4l-28.6 16.5c-2.4 1.4-5.1 2.1-7.8 2.1zm-6.9-3.7c4.2 2.5 9.5 2.5 13.8 0l28.6-16.5c.7-.4 1-1.1 1-1.8 0-.8-.4-1.4-1-1.8l-28.6-16.5c-4.2-2.5-9.5-2.5-13.8 0L71.1 154c-.7.4-1 1.1-1 1.8 0 .8.4 1.4 1 1.8l28.6 16.5z" fill="#fff"/>
<path d="M135.6 75.4h-56l5.2 60.6c0 3.4 2.2 6.7 6.7 9.3 8.9 5.1 23.3 5.1 32.2 0 4.4-2.6 6.7-5.9 6.7-9.3l5.2-60.6z" fill="#1E3DAF" stroke="#fff" stroke-width="1.5" stroke-miterlimit="10" stroke-linejoin="round"/>
<path d="M135.6 75.4h-56l.9 10c1.3 1.6 3 3.2 5.2 4.7 10.7 7 28.3 8.4 40.3 3.2l-1.9 44.3c-.1 1.9-.7 3.8-2 5.3-1.8 2.1-5.3 4.6-12 6.1 4.9-.3 9.7-1.6 13.5-3.8 4.4-2.6 6.7-5.9 6.7-9.3l4.2-48.6 1.1-11.9z" fill="#1E3DAF" stroke="#fff" stroke-width="1.5" stroke-miterlimit="10" stroke-linejoin="round"/>
<path opacity=".4" d="M107.6 91.5c15.464 0 28-7.208 28-16.1 0-8.892-12.536-16.1-28-16.1s-28 7.208-28 16.1c0 8.892 12.536 16.1 28 16.1z" fill="#06033E"/>
<path opacity=".4" d="M107.6 83.6c13.31 0 24.1-6.223 24.1-13.9 0-7.677-10.79-13.9-24.1-13.9-13.31 0-24.1 6.223-24.1 13.9 0 7.677 10.79 13.9 24.1 13.9z" fill="#06033E"/>
<path d="M138.6 72.7v-.1l-.6-5.7v.1c-.3-4.3-3.2-8.5-8.9-11.8-11.9-6.9-31.1-6.9-43 0-5.8 3.4-8.8 7.7-8.9 12.1l-.5 5v.5c-.3 4.8 2.7 9.7 9.1 13.4 12.1 7 31.8 7 43.9 0 6.2-3.8 9.3-8.7 8.9-13.5z" fill="#1E3DAF" stroke="#fff" stroke-width="1.5" stroke-miterlimit="10" stroke-linejoin="round"/>
<path d="M89.8 59.8c9.8-5.7 25.8-5.7 35.6 0 4.4 2.5 6.8 5.7 7.3 9 .6-4.1-1.8-8.4-7.3-11.5-9.8-5.7-25.8-5.7-35.6 0-5.5 3.2-7.9 7.4-7.3 11.5.5-3.3 2.9-6.5 7.3-9z" fill="#1E3DAF" stroke="#fff" stroke-width="1.5" stroke-miterlimit="10" stroke-linejoin="round"/>
<path d="M129.3 55.3c-11.9-7-31.2-7.2-43.2-.4-12 6.8-12.1 17.9-.2 24.9s31.2 7.2 43.2.4c12-6.8 12.1-17.9.2-24.9zm-3.9 22.5c-3.3 1.9-7.3 3.1-11.5 3.8l-.5-1.5c-.2-.6-.7-1-1.4-1h-9c-.6 0-1.2.4-1.4 1l-.5 1.5c-4.2-.6-8.2-1.9-11.5-3.8-9.6-5.7-9.6-14.9.2-20.5 9.8-5.7 25.8-5.7 35.6 0 9.9 5.6 9.9 14.8 0 20.5z" fill="#1E3DAF" stroke="#fff" stroke-width="1.5" stroke-miterlimit="10" stroke-linejoin="round"/>
<path d="M125.4 56.2c-9.8-5.7-25.8-5.7-35.6 0-5.2 3-7.6 6.9-7.4 10.8.2-3.5 2.7-7 7.4-9.7 9.8-5.7 25.8-5.7 35.6 0 4.7 2.7 7.1 6.2 7.4 9.7.2-3.9-2.2-7.8-7.4-10.8z" fill="#fff"/>
<path d="M129.1 79.1c-12 6.8-31.3 6.6-43.2-.4-5.6-3.3-8.6-7.6-8.8-11.9-.2 4.6 2.7 9.4 8.8 13 11.9 7 31.2 7.2 43.2.4 6.3-3.6 9.3-8.3 9-13-.2 4.3-3.2 8.6-9 11.9z" fill="#fff"/>
<path d="M108.4 129.7c-.6 2.4-3.1 3.8-5.5 3.2-2.4-.6-3.8-3.1-3.2-5.5.6-2.4 2.9-3.1 5.3-2.4 2.4.6 4 2.3 3.4 4.7zm3.5-4.7c-.9.9-2.1.8-2.8 0-.8-.8-.9-1.9 0-2.8.9-.9 2.6-1.3 3.4-.5.8.7.3 2.4-.6 3.3zm-4.7-3.7c-.2 1.2-1.2 1.8-2.3 1.6-1.1-.2-1.8-1.1-1.6-2.3.2-1.2 1.4-2.6 2.4-2.4 1.2.2 1.8 1.8 1.5 3.1zm-5.7-.6c.5 1.2-.1 2.2-1.1 2.6-1 .4-2.1.1-2.6-1.1-.5-1.2-.2-2.9.8-3.3 1-.4 2.4.6 2.9 1.8z" fill="#1E3DAF" stroke="#fff" stroke-width="1.5" stroke-miterlimit="10"/>
<path d="M109.4 81.2S125 76 118.7 58C112.4 40 100 34.6 105 20.2c0 0-7.8 11.6-.5 27.4 7.3 15.7 8.9 13.9 8.8 21.5-.1 8.9-7.3 12.2-7.3 12.2h3.4v-.1zm1.4-58.6s-1.6-10.8 8.5-21.6c0 0-8.9 19.9-6 29.8 0 0-2.4-6.3-2.5-8.2z" fill="#1E3DAF" stroke="#fff" stroke-width="1.5" stroke-miterlimit="10" stroke-linecap="round" stroke-linejoin="round"/><defs><radialGradient id="paint0_radial" cx="0" cy="0" r="1" gradientUnits="userSpaceOnUse" gradientTransform="translate(84.161 24.994) scale(347.847)"><stop stop-color="#E39A65"/><stop offset=".474" stop-color="#A92FFB"/><stop offset=".588" stop-color="#891CFB"/><stop offset=".726" stop-color="#6507FA"/><stop offset="1" stop-color="#3919BB"/></radialGradient></defs></svg>